<svg width="162" height="44" viewBox="0 0 162 44" fill="none" xmlns="http://www.w3.org/2000/svg">
<g clip-path="url(#clip0)">
<path d="M51.5388 40.271C52.7369 42.3345 55.3906 43.0415 57.4659 41.8501C59.5413 40.6587 60.2523 38.0201 59.0541 35.9565L39.4625 2.21503C38.2643 0.151468 35.6106 -0.555573 33.5353 0.635823C31.46 1.82722 30.7489 4.4659 31.9471 6.52946L51.5388 40.271Z" fill="url(#paint0_radial)"/>
<path d="M31.264 35.9565C30.0658 38.0201 30.7769 40.6587 32.8522 41.8501C34.9275 43.0415 37.5812 42.3345 38.7794 40.2709L58.371 6.52945C59.5692 4.46589 58.8581 1.82722 56.7828 0.635819C54.7075 -0.555578 52.0538 0.151459 50.8556 2.21502L31.264 35.9565Z" fill="#1E1EB4"/>
<path d="M20.175 40.271C21.3732 42.3345 24.0269 43.0415 26.1022 41.8501C28.1775 40.6587 28.8885 38.0201 27.6904 35.9565L8.09872 2.21503C6.90054 0.151464 4.24684 -0.555574 2.17153 0.635823C0.0962115 1.82722 -0.614843 4.46589 0.583342 6.52946L20.175 40.271Z" fill="#1E1EB4"/>
<path d="M23.7165 35.1727C21.7011 35.1727 20.0674 36.7972 20.0674 38.8012C20.0674 40.8051 21.7011 42.4296 23.7165 42.4296H35.2287C37.244 42.4296 38.8778 40.8051 38.8778 38.8012C38.8778 36.7972 37.244 35.1727 35.2287 35.1727H23.7165Z" fill="#1E1EB4"/>
<path d="M62.6302 35.9577C61.432 38.0213 62.1431 40.6599 64.2184 41.8513C66.2937 43.0427 68.9474 42.3357 70.1456 40.2721L89.7372 6.53066C90.9354 4.4671 90.2244 1.82843 88.1491 0.63703C86.0737 -0.554366 83.42 0.152668 82.2218 2.21623L62.6302 35.9577Z" fill="#1E1EB4"/>
<path d="M55.0827 35.1704C53.0674 35.1704 51.4336 36.7949 51.4336 38.7988C51.4336 40.8027 53.0674 42.4272 55.0827 42.4272H66.5949C68.6102 42.4272 70.244 40.8027 70.244 38.7988C70.244 36.7949 68.6102 35.1704 66.5949 35.1704H55.0827Z" fill="#1E1EB4"/>
<path d="M4.44255 -1.23978e-05C2.42721 -1.23978e-05 0.793457 1.62449 0.793457 3.62841C0.793457 5.63233 2.42721 7.25684 4.44255 7.25684L35.5728 7.25684C37.5882 7.25684 39.2219 5.63233 39.2219 3.62841C39.2219 1.62449 37.5882 -1.23978e-05 35.5728 -1.23978e-05L4.44255 -1.23978e-05Z" fill="#1E1EB4"/>
<path d="M110.461 3.72801C109.263 1.66445 106.609 0.957421 104.534 2.14882C102.459 3.34021 101.748 5.97887 102.946 8.04243L122.538 41.7839C123.736 43.8475 126.389 44.5545 128.465 43.3631C130.54 42.1717 131.251 39.5331 130.053 37.4695L110.461 3.72801Z" fill="url(#paint1_radial)" style="mix-blend-mode:darken"/>
<path d="M55.4264 -1.85966e-05C53.4111 -1.85966e-05 51.7773 1.62448 51.7773 3.6284C51.7773 5.63232 53.4111 7.25684 55.4264 7.25684L85.6048 7.25684C87.6201 7.25684 89.2539 5.63232 89.2539 3.6284C89.2539 1.62448 87.6201 -1.85966e-05 85.6048 -1.85966e-05L55.4264 -1.85966e-05Z" fill="#1E1EB4"/>
<path d="M130.736 8.04482C131.934 5.98126 131.223 3.34261 129.147 2.15121C127.072 0.959812 124.418 1.66683 123.22 3.73039L103.629 37.4719C102.43 39.5354 103.141 42.1741 105.217 43.3655C107.292 44.5569 109.946 43.8499 111.144 41.7863L130.736 8.04482Z" fill="#848484"/>
<path d="M141.825 3.72922C140.627 1.66566 137.973 0.958641 135.898 2.15004C133.823 3.34143 133.111 5.98009 134.31 8.04365L153.901 41.7852C155.099 43.8487 157.753 44.5557 159.828 43.3643C161.904 42.1729 162.615 39.5343 161.417 37.4707L141.825 3.72922Z" fill="#848484"/>
<path d="M138.281 8.82962C140.296 8.82962 141.93 7.20513 141.93 5.2012C141.93 3.19728 140.296 1.57278 138.281 1.57278L126.769 1.57278C124.754 1.57278 123.12 3.19728 123.12 5.2012C123.12 7.20513 124.754 8.82962 126.769 8.82962H138.281Z" fill="#848484"/>
<path d="M99.3703 8.04244C100.568 5.97888 99.8574 3.34022 97.7821 2.14882C95.7068 0.957424 93.0531 1.66445 91.8549 3.72801L72.2633 37.4695C71.0651 39.5331 71.7761 42.1717 73.8515 43.3631C75.9268 44.5545 78.5805 43.8475 79.7786 41.7839L99.3703 8.04244Z" fill="#848484"/>
<path d="M106.917 8.82724C108.933 8.82724 110.566 7.20275 110.566 5.19882C110.566 3.1949 108.933 1.5704 106.917 1.5704L95.4051 1.5704C93.3898 1.5704 91.756 3.1949 91.756 5.19882C91.756 7.20275 93.3898 8.82724 95.4051 8.82724H106.917Z" fill="#848484"/>
<path d="M157.557 44C159.573 44 161.207 42.3755 161.207 40.3716C161.207 38.3677 159.573 36.7432 157.557 36.7432H126.427C124.412 36.7432 122.778 38.3677 122.778 40.3716C122.778 42.3755 124.412 44 126.427 44H157.557Z" fill="#848484"/>
<path d="M106.574 44C108.589 44 110.223 42.3755 110.223 40.3716C110.223 38.3677 108.589 36.7432 106.574 36.7432H76.3952C74.3799 36.7432 72.7461 38.3677 72.7461 40.3716C72.7461 42.3755 74.3799 44 76.3952 44H106.574Z" fill="#848484"/>
</g>
<defs>
<radialGradient id="paint0_radial" cx="0" cy="0" r="1" gradientUnits="userSpaceOnUse" gradientTransform="translate(45.5025 21.2411) scale(18.0796 17.9772)">
<stop stop-color="#1B1464"/>
<stop offset="0.26" stop-color="#1C1883"/>
<stop offset="0.55" stop-color="#1D1B9E"/>
<stop offset="0.8" stop-color="#1E1DAE"/>
<stop offset="1" stop-color="#1E1EB4"/>
</radialGradient>
<radialGradient id="paint1_radial" cx="0" cy="0" r="1" gradientUnits="userSpaceOnUse" gradientTransform="translate(116.5 22.7564) scale(18.0796 17.9772)">
<stop offset="1" stop-color="#848484"/>
</radialGradient>
<clipPath id="clip0">
<rect width="162" height="44" fill="white"/>
</clipPath>
</defs>
</svg>
